<?xml version="1.0" encoding="UTF-8"?><svg id="Layer_1" xmlns="http://www.w3.org/2000/svg" viewBox="0 0 1290 143.73"><defs><style>.cls-1,.cls-2{fill:#171713;}.cls-2{fill-rule:evenodd;}.cls-3{fill:#ffc83a;}.cls-4{fill:none;stroke:#171713;stroke-miterlimit:10;stroke-width:3.81px;}.cls-5{fill:#2526b3;}</style></defs><g id="Group_1904"><g id="Group_1819"><path id="Path_1" class="cls-1" d="M724.27,7.8l-24.8,26.86v49.89h23.32l-23.32,24.8v26.57h23.32l23.32-26.57h25.39l23.32-25.09h0V7.8h-70.56,0ZM722.79,131.79v-22.44h-19.48l19.19-21.55v21.55h20.07l-19.78,22.44ZM748.18,84.26h-25.39v-25.09h25.39v25.09ZM792.76,83.08l-21.26,22.14V34.37h-68.19l22.14-24.5h46.05v24.5h21.26v48.71Z"/><g id="Group_1"><path id="Path_2" class="cls-1" d="M921.65,105.25h-21.85c-7.68.3-14.17-5.31-14.76-12.99v-41.03c-.59-7.68,5.31-14.17,12.99-14.76h23.91c7.68-.59,14.17,5.31,14.76,12.99v41.33c.3,7.68-5.31,14.17-12.99,14.76-.89,0-1.48,0-2.07-.3h.01ZM928.14,51.52c.3-4.13-2.66-7.68-6.79-7.97h-20.37c-3.84-.3-7.38,2.66-7.68,6.79v40.15c-.3,4.13,2.66,7.68,6.79,7.97h20.37c4.13.3,7.68-2.95,7.97-6.79v-40.15h-.3.01Z"/><path id="Path_3" class="cls-1" d="M993.97,79.27h-25.68v25.98h-8.27V36.47h33.65c7.68-.59,14.17,5.31,14.76,12.99v15.35c.3,7.68-5.31,14.17-12.99,14.76-.59-.3-1.18-.3-1.48-.3h0ZM1000.47,51.52c.3-4.13-2.66-7.68-6.79-7.97h-25.39v28.64h24.21c4.13.3,7.68-2.66,7.97-6.79v-13.88Z"/><path id="Path_4" class="cls-1" d="M1028.81,36.47h44.58v7.09h-36.61v23.62h31.29v7.09h-31.29v23.91h36.31v7.09h-44.28V36.47Z"/><path id="Path_5" class="cls-1" d="M1117.08,77.5l-18.3,27.75h-9.15l22.73-34.24-22.73-34.54h9.74l18.01,27.75,18.3-27.75h9.15l-23.03,34.24,23.03,34.54h-9.74s-18.01-27.75-18.01-27.75Z"/><path id="Path_6" class="cls-1" d="M1215.98,36.47v54.32c.3,7.68-5.31,14.17-12.99,14.76h-23.62c-7.68.3-14.17-5.31-14.76-12.99v-56.09h8.27v53.73c-.3,4.13,2.66,7.68,6.79,7.97h20.37c4.13.3,7.68-2.95,7.97-6.79v-54.91s7.97,0,7.97,0Z"/><path id="Path_7" class="cls-1" d="M1289.78,81.93v8.86c.3,7.68-5.31,14.17-12.99,14.76h-22.73c-7.68.3-14.17-5.31-14.76-12.99v-7.38h8.27v5.61c-.3,4.13,2.66,7.68,6.79,7.97h19.48c4.13.3,7.68-2.66,7.97-6.79v-9.15c.3-4.13-2.66-7.68-6.79-7.97h-20.96c-7.68.3-14.17-5.31-14.76-12.99v-10.63c-.59-7.68,5.31-14.17,12.99-14.76h22.73c7.68-.59,14.17,5.31,14.76,12.99v7.68h-8.27v-5.61c.3-4.13-2.66-7.68-6.79-7.97h-19.48c-4.13-.3-7.68,2.66-7.97,6.79v9.15c-.3,4.13,2.66,7.68,6.79,7.97h20.96c7.68-.3,14.17,5.31,14.76,12.99.3.59.3.89,0,1.48h0Z"/></g></g></g><path class="cls-3" d="M50.68,7.98c26.55,1.23,47.08,23.78,45.84,50.33-1.2,25.74-22.46,45.99-48.22,45.9V7.98h2.38Z"/><path class="cls-5" d="M45.9,39.51C19.36,40.74-1.18,63.29.05,89.84c1.21,25.74,22.47,45.99,48.23,45.9V39.51h-2.38Z"/><path class="cls-2" d="M497.95,31.93c0,2.53-1.03,4.94-2.86,6.69-.89.86-1.95,1.52-3.11,1.95-3.68,1.47-7.86.69-10.74-2.01-1.77-1.75-2.76-4.14-2.7-6.64,0-1.23.26-2.47.71-3.59.48-1.12,1.21-2.15,2.11-2.99.91-.83,1.97-1.52,3.09-2.01,1.21-.55,2.53-.8,3.88-.78,1.33,0,2.62.23,3.83.72,1.17.43,2.21,1.12,3.09,1.98.89.83,1.61,1.84,2.11,2.96.45,1.18.65,2.44.58,3.71h.02,0ZM479.6,100.5v-51.97h17.09v51.97h-17.09ZM352.43,75.14v2.1c.02.66.02,1.32,0,1.95h-37.61c.14,1.41.58,2.76,1.32,3.96.74,1.21,1.7,2.24,2.82,3.07,1.15.89,2.44,1.58,3.85,2.04,1.44.49,2.95.75,4.45.75,2.38.06,4.73-.46,6.89-1.52,1.8-.95,3.38-2.27,4.59-3.91l11.86,7.5c-2.41,3.56-5.74,6.38-9.65,8.19-4.36,1.98-9.14,2.99-13.94,2.87-3.76,0-7.49-.6-11.05-1.84-3.36-1.15-6.5-2.99-9.14-5.37-2.65-2.41-4.74-5.34-6.15-8.62-1.55-3.71-2.33-7.67-2.24-11.69-.06-3.94.7-7.87,2.18-11.52,1.35-3.3,3.39-6.29,5.97-8.76,2.56-2.44,5.58-4.34,8.88-5.6,3.55-1.35,7.27-2.01,11.03-1.98,3.62-.03,7.18.63,10.58,1.92,3.11,1.26,5.92,3.16,8.24,5.6,2.39,2.56,4.2,5.57,5.38,8.88,1.29,3.85,1.86,7.9,1.74,11.95l-.02.03h.02ZM336.53,68.56c0-2.59-.95-5.09-2.7-6.98-2.02-2.07-4.83-3.13-7.67-2.93-1.59,0-3.14.26-4.61.78-1.32.49-2.58,1.23-3.65,2.15-1.03.89-1.89,1.98-2.49,3.19-.61,1.18-.98,2.47-1.08,3.79h22.2ZM286.56,63.86l.05.04-.06-.03h.02,0ZM295.91,53.99l-9.35,9.87c-1.42-1.36-3.08-2.47-4.83-3.32-1.88-.89-3.88-1.35-5.96-1.35-1.52,0-3.05.29-4.42.95-1.73.78-2.53,2.79-1.76,4.54.38.86,1.08,1.52,1.95,1.84,2.36.86,4.8,1.55,7.27,2.07,2.02.46,3.97,1.03,5.89,1.78s3.73,1.75,5.36,3.05c1.61,1.23,2.91,2.82,3.88,4.6,1.03,2.01,1.56,4.22,1.47,6.46.06,2.9-.67,5.75-2.09,8.27-1.27,2.18-3.05,4.02-5.18,5.37-2.18,1.44-4.59,2.44-7.15,3.05-2.58.6-5.26.92-7.92.95-4.26,0-8.47-.69-12.5-2.04-3.79-1.21-7.27-3.25-10.17-6l9.59-10.14c1.61,1.72,3.53,3.13,5.64,4.17,2.18,1.12,4.62,1.7,7.09,1.67,1.44,0,2.85-.35,4.11-.98,1.35-.63,2.15-2.04,2.05-3.5,0-1.58-1.02-2.99-2.5-3.53-2.53-1.06-5.17-1.87-7.85-2.41-1.83-.43-3.62-.98-5.36-1.67-1.76-.63-3.39-1.55-4.83-2.7-1.44-1.21-2.64-2.7-3.5-4.37-.95-1.95-1.44-4.11-1.38-6.26-.09-2.82.61-5.6,1.98-8.07,1.29-2.15,3.02-3.99,5.11-5.37,2.14-1.41,4.49-2.44,6.96-3.1,2.47-.63,5-.98,7.56-1.01,3.88,0,7.76.63,11.42,1.84,3.52,1.09,6.73,2.93,9.43,5.37v-.03ZM178.99,65.34c-1.05-1.32-2.39-2.36-3.94-3.05-1.61-.75-3.33-1.12-5.12-1.12-1.68-.03-3.35.34-4.88,1.06-1.44.72-2.73,1.72-3.76,2.93-1.03,1.23-1.85,2.67-2.36,4.22-.62,1.64-.91,3.39-.91,5.14s.29,3.48.86,5.11c1.03,3.13,3.3,5.69,6.29,7.1,1.61.72,3.33,1.06,5.08,1.03,1.79,0,3.52-.34,5.18-1,1.61-.6,3.02-1.58,4.14-2.87l9.47,11.58c-2.47,2.27-5.39,3.94-8.59,4.91-3.44,1.18-7.09,1.78-10.74,1.78-3.91.03-7.8-.6-11.49-1.87-3.42-1.15-6.58-2.99-9.27-5.37-2.62-2.47-4.71-5.49-6.09-8.82-1.56-3.65-2.33-7.61-2.27-11.58-.06-3.94.71-7.87,2.27-11.49,1.42-3.3,3.53-6.26,6.17-8.7,2.7-2.44,5.86-4.31,9.29-5.55,3.67-1.29,7.52-1.95,11.43-1.92,1.82,0,3.59.14,5.38.46,1.8.32,3.62.8,5.36,1.41,1.64.58,3.23,1.29,4.71,2.21,1.35.8,2.59,1.78,3.71,2.87l-9.86,11.55-.05-.03h0ZM230.39,93.72c-1.73,2.7-4.23,4.83-7.15,6.09-3.11,1.44-6.47,2.15-9.86,2.15-3.59.06-7.18-.72-10.42-2.27-2.99-1.47-5.65-3.56-7.79-6.12-2.15-2.61-3.79-5.6-4.82-8.82-2.24-6.75-2.24-14.05,0-20.83,1.09-3.19,2.76-6.12,4.91-8.71,2.12-2.5,4.74-4.51,7.7-5.95,3.18-1.49,6.67-2.27,10.17-2.21,3.36-.12,6.73.63,9.71,2.21,2.33,1.21,4.42,2.84,6.15,4.8h.2v-5.75h17.12v52.17h-15.71v-6.81h-.2v.05ZM205.13,74.3c0,1.67.26,3.33.77,4.94.52,1.58,1.33,3.07,2.36,4.37,1.06,1.26,2.35,2.3,3.85,3.02,1.67.8,3.5,1.21,5.36,1.15,1.82.03,3.59-.34,5.21-1.15,1.48-.72,2.83-1.75,3.92-3.02,2.15-2.59,3.36-5.83,3.42-9.19-.03-3.36-1.24-6.61-3.42-9.19-1.09-1.26-2.41-2.3-3.92-3.05-1.65-.77-3.42-1.18-5.21-1.12-1.86-.06-3.7.35-5.36,1.12-2.95,1.47-5.2,4.05-6.21,7.21-.52,1.58-.77,3.25-.77,4.91ZM473.19,85.82c1.59-3.62,2.36-7.56,2.3-11.52h.03c.08-3.94-.67-7.84-2.18-11.46-1.5-3.3-3.68-6.26-6.41-8.68-2.67-2.36-5.8-4.19-9.17-5.37-7.21-2.5-15.08-2.5-22.29,0-3.39,1.18-6.5,2.99-9.17,5.37-2.64,2.41-4.77,5.37-6.2,8.68-1.59,3.62-2.36,7.53-2.3,11.46-.06,3.97.71,7.9,2.3,11.52,1.42,3.33,3.56,6.29,6.2,8.76,2.67,2.47,5.77,4.37,9.17,5.6,7.18,2.64,15.11,2.64,22.29,0,3.39-1.26,6.5-3.16,9.17-5.6,2.7-2.44,4.82-5.43,6.26-8.76ZM458.18,69.39c.55,1.58.83,3.25.83,4.91h-.06c0,1.67-.26,3.3-.77,4.89-.5,1.61-1.3,3.07-2.33,4.37-1.06,1.29-2.38,2.36-3.88,3.07-3.42,1.58-7.32,1.58-10.74,0-1.5-.75-2.82-1.78-3.88-3.07-1.03-1.29-1.83-2.79-2.32-4.37-.53-1.58-.79-3.22-.79-4.89s.26-3.33.79-4.91c.48-1.55,1.23-2.96,2.26-4.22,1.06-1.23,2.36-2.27,3.82-2.99,3.42-1.52,7.33-1.52,10.76,0,1.49.72,2.8,1.75,3.92,2.99,1.05,1.24,1.88,2.67,2.39,4.22h0ZM538.32,72.09v28.38l17.21.2v-32.23c-.03-2.59-.38-5.2-1-7.73-.64-2.5-1.76-4.85-3.3-6.92-1.56-2.01-3.56-3.65-5.83-4.77-2.79-1.29-5.8-1.95-8.88-1.87-1.73-.03-3.45.23-5.12.72-1.55.46-3.02,1.09-4.44,1.87-1.3.75-2.5,1.64-3.55,2.7-.94,1.01-1.74,2.13-2.44,3.3h-.2v-7.21h-16.58v51.94h17.24v-28.18c0-1.44.2-2.84.56-4.22.35-1.29.92-2.5,1.73-3.59.74-1.03,1.73-1.87,2.88-2.44,1.23-.63,2.61-.92,3.99-.89,1.33-.06,2.65.26,3.82.89.98.55,1.79,1.38,2.33,2.39.61,1.09,1,2.27,1.21,3.5.26,1.38.36,2.76.36,4.17h0ZM582.91,61.26v19.91c-.12,1.9.36,3.76,1.41,5.37,1.32,1.35,3.18,2.04,5.05,1.84.89,0,1.82-.06,2.71-.2.8-.12,1.61-.32,2.35-.63l.2,12.53c-1.45.49-2.95.86-4.49,1.09-1.77.29-3.56.46-5.36.46-2.99.08-5.96-.35-8.79-1.29-2.18-.77-4.14-2.07-5.67-3.79-1.45-1.7-2.53-3.71-3.08-5.86-.65-2.47-.97-5.03-.94-7.58v-21.83h-8.33v-12.7h8.21v-13.67h16.83v13.67h12.21v12.7h-12.32v-.02ZM397.07,69.39c.52,1.58.77,3.25.77,4.91h-.03c.03,1.67-.2,3.33-.65,4.94-.53,1.61-1.3,3.07-2.33,4.37-1.03,1.27-2.33,2.3-3.79,3.02-1.67.8-3.52,1.21-5.38,1.15-1.77.03-3.59-.35-5.2-1.15-1.5-.75-2.82-1.75-3.91-3.02-1.09-1.26-1.95-2.73-2.53-4.31-.58-1.55-.88-3.22-.88-4.89.02-1.67.3-3.33.88-4.91.58-1.58,1.44-3.02,2.53-4.28,1.06-1.26,2.36-2.3,3.82-3.04,1.64-.78,3.42-1.15,5.23-1.12,3.55-.12,6.89,1.38,9.14,4.11,1.05,1.27,1.85,2.67,2.33,4.22h0ZM356.61,48.53v73.52h.03v-.12c9.46,0,17.09-7.64,17.09-17.09v-10.17h.21c1.71,2.36,4.02,4.22,6.68,5.37,2.85,1.29,5.96,1.93,9.08,1.93,3.62.08,7.18-.69,10.44-2.27,2.99-1.47,5.62-3.56,7.79-6.12,2.15-2.61,3.79-5.6,4.82-8.82,1.12-3.36,1.67-6.89,1.67-10.43s-.58-7.07-1.73-10.4c-1.06-3.19-2.73-6.12-4.88-8.71-4.52-5.23-11.12-8.19-18.02-8.07-3.47-.09-6.89.72-9.97,2.36-2.55,1.32-4.79,3.16-6.64,5.37h-.29v-6.35h-16.29.01Z"/><line class="cls-4" x1="647.35" y1="0" x2="647.35" y2="143.73"/></svg>