<svg width="425" height="100" viewBox="0 0 425 100" fill="none" xmlns="http://www.w3.org/2000/svg">
<path fill-rule="evenodd" clip-rule="evenodd" d="M413.941 24.2221C412.235 22.6504 409.737 21.8637 406.445 21.8637H391.632C390.387 21.8637 389.401 21.5161 388.674 20.8203C387.947 20.1251 387.585 19.1424 387.585 17.8723C387.585 16.6023 387.941 15.6126 388.652 14.902C389.364 14.1914 390.372 13.8361 391.677 13.8361H414.897V8.07596H391.677C390.076 8.07596 388.652 8.31026 387.407 8.77887C386.161 9.24806 385.116 9.89017 384.27 10.7064C383.425 11.5226 382.788 12.4982 382.358 13.6319C381.928 14.7656 381.713 15.9979 381.713 17.3282C381.713 18.6886 381.942 19.9439 382.402 21.0924C382.862 22.242 383.514 23.2318 384.36 24.0633C385.205 24.8955 386.243 25.5453 387.473 26.0133C388.703 26.4825 390.076 26.7168 391.588 26.7168H406.445C407.958 26.7168 409.121 27.0721 409.937 27.7821C410.753 28.4932 411.161 29.5591 411.161 30.9796C411.161 32.2804 410.753 33.3232 409.937 34.1094C409.121 34.8961 407.958 35.2885 406.445 35.2885H382.202V41.0487H406.445C408.136 41.0487 409.61 40.8067 410.871 40.3228C412.132 39.8394 413.177 39.166 414.007 38.3044C414.837 37.4427 415.46 36.4223 415.876 35.2431C416.291 34.0639 416.498 32.7791 416.498 31.388C416.498 28.1834 415.645 25.7943 413.941 24.2221ZM372.047 26.4896C372.047 28.1527 371.847 29.5738 371.447 30.753C371.046 31.9322 370.394 32.9001 369.489 33.6555C368.584 34.4115 367.376 34.9639 365.864 35.311C364.352 35.6592 362.483 35.8327 360.259 35.8327C358.035 35.8327 356.167 35.6592 354.654 35.311C353.142 34.9639 351.933 34.4115 351.029 33.6555C350.124 32.9001 349.472 31.9322 349.072 30.753C348.671 29.5738 348.471 28.1527 348.471 26.4896V8.07596H342.644V26.4896C342.644 29.0297 342.97 31.2446 343.622 33.1344C344.274 35.0241 345.297 36.5887 346.692 37.8281C348.085 39.0686 349.887 39.9905 352.097 40.5948C354.306 41.1992 356.967 41.502 360.081 41.502C363.224 41.502 365.901 41.1992 368.11 40.5948C370.319 39.9905 372.121 39.0686 373.515 37.8281C374.909 36.5887 375.932 35.0241 376.584 33.1344C377.236 31.2446 377.563 29.0297 377.563 26.4896V8.07596H372.047V26.4896ZM331.434 41.0487H337.084V8.07655H331.434V41.0487ZM306.342 8.07596H300.692V41.0487H328.094V35.2885H306.342V8.07596ZM272.58 13.8361H295.844V8.07596H266.975V41.0487H295.889V35.2885H272.58V13.8361ZM294.644 21.8637H276.717V26.7168H294.644V21.8637ZM260.303 11.2736C259.294 10.2608 258.057 9.47469 256.589 8.9152C255.121 8.35571 253.453 8.07596 251.585 8.07596H228.854V41.0487H234.459V13.8361H251.585C253.571 13.8361 255.121 14.3956 256.233 15.514C257.345 16.633 257.901 18.1444 257.901 20.0495C257.901 21.9245 257.345 23.436 256.233 24.5851C255.121 25.7341 253.571 26.3084 251.585 26.3084H238.596V31.8867H251.585C253.453 31.8867 255.121 31.5923 256.589 31.0027C258.057 30.4131 259.294 29.5892 260.303 28.5304C261.311 27.4728 262.082 26.2104 262.617 24.7438C263.15 23.2772 263.417 21.6524 263.417 19.8683C263.417 18.0541 263.15 16.4211 262.617 14.9698C262.082 13.5186 261.311 12.2869 260.303 11.2736ZM218.103 28.8031C217.598 30.1339 216.894 31.2747 215.99 32.2273C215.085 33.1792 214.011 33.9276 212.765 34.4723C211.519 35.0165 210.155 35.2885 208.672 35.2885H200.799C199.346 35.2885 198.004 35.0165 196.773 34.4723C195.542 33.9276 194.483 33.1792 193.593 32.2273C192.703 31.2747 192.006 30.1339 191.502 28.8031C190.998 27.4728 190.746 26.0363 190.746 24.4942C190.746 22.9225 190.998 21.486 191.502 20.1853C192.006 18.8857 192.703 17.7667 193.593 16.8295C194.483 15.8923 195.542 15.1593 196.773 14.6299C198.004 14.1011 199.346 13.8361 200.799 13.8361H208.672C210.155 13.8361 211.519 14.1011 212.765 14.6299C214.011 15.1593 215.085 15.8923 215.99 16.8295C216.894 17.7667 217.598 18.8928 218.103 20.2083C218.607 21.5232 218.859 22.952 218.859 24.4942C218.859 26.0363 218.607 27.4728 218.103 28.8031ZM220.105 12.566C218.711 11.1449 217.042 10.0418 215.1 9.25514C213.158 8.46902 211.015 8.07596 208.672 8.07596H200.799C198.545 8.07596 196.462 8.46135 194.549 9.23271C192.636 10.0035 190.975 11.0918 189.567 12.4982C188.158 13.904 187.061 15.6049 186.275 17.6003C185.489 19.5957 185.097 21.8035 185.097 24.2221C185.097 26.6111 185.489 28.8332 186.275 30.8893C187.061 32.9455 188.158 34.7214 189.567 36.2181C190.975 37.7148 192.636 38.894 194.549 39.7556C196.462 40.6173 198.545 41.0487 200.799 41.0487H208.672C210.986 41.0487 213.105 40.6173 215.034 39.7556C216.961 38.894 218.629 37.7148 220.038 36.2181C221.446 34.7214 222.544 32.9455 223.329 30.8893C224.115 28.8332 224.508 26.6111 224.508 24.2221C224.508 21.8336 224.123 19.6488 223.352 17.6681C222.58 15.6881 221.498 13.9878 220.105 12.566ZM179.563 27.0113C180.734 25.1516 181.321 22.8464 181.321 20.095C181.321 18.2507 181.054 16.5875 180.52 15.1056C179.986 13.6248 179.214 12.3618 178.207 11.319C177.198 10.2756 175.967 9.47469 174.515 8.9152C173.061 8.35571 171.415 8.07596 169.577 8.07596H146.357V41.0487H151.961V13.8361H169.577C171.534 13.8361 173.054 14.3572 174.136 15.4007C175.218 16.4435 175.76 18.0388 175.76 20.1853C175.76 22.3329 175.241 23.9724 174.203 25.1062C173.165 26.2405 171.623 26.8071 169.577 26.8071H156.099V31.8867H168.198L176.383 41.0487H184.389L174.648 31.0251C176.753 30.2089 178.392 28.8709 179.563 27.0113ZM139.685 11.2736C138.677 10.2608 137.438 9.47469 135.971 8.9152C134.503 8.35571 132.835 8.07596 130.966 8.07596H108.235V41.0487H113.84V13.8361H130.966C132.953 13.8361 134.503 14.3956 135.615 15.514C136.727 16.633 137.283 18.1444 137.283 20.0495C137.283 21.9245 136.727 23.436 135.615 24.5851C134.503 25.7341 132.953 26.3084 130.966 26.3084H117.977V31.8867H130.966C132.835 31.8867 134.503 31.5923 135.971 31.0027C137.438 30.4131 138.677 29.5892 139.685 28.5304C140.692 27.4728 141.464 26.2104 141.998 24.7438C142.532 23.2772 142.798 21.6524 142.798 19.8683C142.798 18.0541 142.532 16.4211 141.998 14.9698C141.464 13.5186 140.692 12.2869 139.685 11.2736Z" fill="#40BA77"/>
<path fill-rule="evenodd" clip-rule="evenodd" d="M414.844 61.3054C413.705 60.2691 412.036 59.7509 409.837 59.7509H399.941C399.109 59.7509 398.45 59.5219 397.965 59.0633C397.479 58.6048 397.237 57.9568 397.237 57.1199C397.237 56.2824 397.475 55.6297 397.95 55.1611C398.426 54.6931 399.099 54.4588 399.971 54.4588H415.483V50.6615H399.971C398.901 50.6615 397.95 50.8162 397.118 51.1248C396.286 51.4341 395.587 51.8578 395.023 52.3955C394.458 52.9337 394.032 53.5764 393.745 54.3242C393.458 55.0714 393.314 55.884 393.314 56.7611C393.314 57.6581 393.468 58.485 393.775 59.2428C394.082 60 394.518 60.6527 395.082 61.201C395.647 61.7493 396.34 62.1777 397.162 62.4864C397.985 62.7956 398.901 62.9497 399.911 62.9497H409.837C410.847 62.9497 411.625 63.1846 412.17 63.6526C412.714 64.1212 412.987 64.8235 412.987 65.7601C412.987 66.6176 412.714 67.3052 412.17 67.8234C411.625 68.3422 410.847 68.6007 409.837 68.6007H393.641V72.3979H409.837C410.966 72.3979 411.951 72.2385 412.794 71.9192C413.636 71.6005 414.334 71.1573 414.889 70.589C415.443 70.0206 415.859 69.3484 416.137 68.5706C416.414 67.7933 416.553 66.9464 416.553 66.0292C416.553 63.917 415.983 62.3424 414.844 61.3054ZM387.024 59.7509H375.048V62.9503H387.024V59.7509ZM372.284 54.4588H387.826V50.6615H368.54V72.3979H387.855V68.6007H372.284V54.4588ZM357.788 72.3979H361.563V50.6615H357.788V72.3979ZM337.471 62.9497H347.218V68.6007H337.976C337.005 68.6007 336.109 68.4212 335.287 68.0624C334.465 67.7036 333.756 67.2102 333.162 66.5828C332.568 65.9549 332.103 65.2024 331.765 64.3254C331.428 63.4484 331.26 62.5011 331.26 61.4849C331.26 60.4485 331.428 59.5018 331.765 58.6443C332.103 57.788 332.568 57.0502 333.162 56.4317C333.756 55.8144 334.465 55.331 335.287 54.9817C336.109 54.6335 337.005 54.4588 337.976 54.4588H349.685V50.6615H337.976C336.471 50.6615 335.079 50.9159 333.801 51.4241C332.523 51.9322 331.414 52.6499 330.473 53.5764C329.532 54.5036 328.799 55.625 328.274 56.9405C327.749 58.256 327.487 59.7108 327.487 61.3054C327.487 62.88 327.749 64.3455 328.274 65.7005C328.799 67.0562 329.532 68.2271 330.473 69.2138C331.414 70.2 332.523 70.9779 333.801 71.5457C335.079 72.114 336.471 72.3979 337.976 72.3979H351.022V59.7509H337.471V62.9497ZM318.147 64.3254C317.809 65.2024 317.339 65.9549 316.735 66.5828C316.131 67.2102 315.413 67.7036 314.581 68.0624C313.748 68.4212 312.837 68.6007 311.847 68.6007H306.587C305.616 68.6007 304.719 68.4212 303.897 68.0624C303.075 67.7036 302.367 67.2102 301.773 66.5828C301.178 65.9549 300.713 65.2024 300.376 64.3254C300.039 63.4484 299.871 62.5011 299.871 61.4849C299.871 60.4485 300.039 59.5018 300.376 58.6443C300.713 57.788 301.178 57.0502 301.773 56.4317C302.367 55.8144 303.075 55.331 303.897 54.9817C304.719 54.6335 305.616 54.4588 306.587 54.4588H311.847C312.837 54.4588 313.748 54.6335 314.581 54.9817C315.413 55.331 316.131 55.8144 316.735 56.4317C317.339 57.0502 317.809 57.7921 318.147 58.6597C318.484 59.5266 318.652 60.4686 318.652 61.4849C318.652 62.5011 318.484 63.4484 318.147 64.3254ZM319.484 53.6213C318.553 52.6847 317.438 51.9576 316.141 51.4388C314.843 50.9206 313.411 50.6615 311.847 50.6615H306.587C305.081 50.6615 303.689 50.9159 302.412 51.4241C301.134 51.9322 300.024 52.6499 299.084 53.5764C298.142 54.5036 297.409 55.625 296.884 56.9405C296.359 58.256 296.097 59.7108 296.097 61.3054C296.097 62.88 296.359 64.3455 296.884 65.7005C297.409 67.0562 298.142 68.2271 299.084 69.2138C300.024 70.2 301.134 70.9779 302.412 71.5457C303.689 72.114 305.081 72.3979 306.587 72.3979H311.847C313.392 72.3979 314.809 72.114 316.097 71.5457C317.384 70.9779 318.498 70.2 319.439 69.2138C320.38 68.2271 321.113 67.0562 321.639 65.7005C322.163 64.3455 322.426 62.88 322.426 61.3054C322.426 59.7314 322.168 58.2908 321.653 56.9853C321.138 55.6798 320.415 54.5585 319.484 53.6213ZM277.774 50.6615H274V72.3979H292.305V68.6007H277.774V50.6615ZM263.775 64.3254C263.438 65.2024 262.967 65.9549 262.363 66.5828C261.758 67.2102 261.041 67.7036 260.208 68.0624C259.377 68.4212 258.465 68.6007 257.475 68.6007H252.215C251.244 68.6007 250.347 68.4212 249.526 68.0624C248.703 67.7036 247.995 67.2102 247.401 66.5828C246.806 65.9549 246.34 65.2024 246.004 64.3254C245.667 63.4484 245.499 62.5011 245.499 61.4849C245.499 60.4485 245.667 59.5018 246.004 58.6443C246.34 57.788 246.806 57.0502 247.401 56.4317C247.995 55.8144 248.703 55.331 249.526 54.9817C250.347 54.6335 251.244 54.4588 252.215 54.4588H257.475C258.465 54.4588 259.377 54.6335 260.208 54.9817C261.041 55.331 261.758 55.8144 262.363 56.4317C262.967 57.0502 263.438 57.7921 263.775 58.6597C264.111 59.5266 264.28 60.4686 264.28 61.4849C264.28 62.5011 264.111 63.4484 263.775 64.3254ZM265.112 53.6213C264.18 52.6847 263.066 51.9576 261.769 51.4388C260.471 50.9206 259.04 50.6615 257.475 50.6615H252.215C250.709 50.6615 249.317 50.9159 248.04 51.4241C246.762 51.9322 245.652 52.6499 244.711 53.5764C243.77 54.5036 243.037 55.625 242.512 56.9405C241.987 58.256 241.724 59.7108 241.724 61.3054C241.724 62.88 241.987 64.3455 242.512 65.7005C243.037 67.0562 243.77 68.2271 244.711 69.2138C245.652 70.2 246.762 70.9779 248.04 71.5457C249.317 72.114 250.709 72.3979 252.215 72.3979H257.475C259.02 72.3979 260.436 72.114 261.724 71.5457C263.012 70.9779 264.126 70.2 265.068 69.2138C266.008 68.2271 266.741 67.0562 267.266 65.7005C267.791 64.3455 268.054 62.88 268.054 61.3054C268.054 59.7314 267.796 58.2908 267.281 56.9853C266.766 55.6798 266.043 54.5585 265.112 53.6213ZM232.213 66.3881L216.968 51.1697C216.69 50.8911 216.423 50.6916 216.165 50.5718C215.908 50.4526 215.641 50.3924 215.363 50.3924C214.769 50.3924 214.298 50.5972 213.952 51.0056C213.605 51.414 213.432 51.9676 213.432 52.6646V72.3979H217.027V56.4919L232.213 71.8596C232.747 72.3979 233.322 72.667 233.936 72.667C234.491 72.667 234.942 72.4675 235.289 72.0691C235.635 71.6702 235.809 71.1125 235.809 70.3948V50.4821H232.213V66.3881ZM185.433 72.4876H189.207V50.6615H185.433V72.4876ZM202.817 59.6612H191.94V63.0394H202.817V72.4876H206.591V50.6615H202.817V59.6612ZM163.938 51.4241C162.661 51.9322 161.551 52.6499 160.61 53.5764C159.669 54.5036 158.936 55.625 158.411 56.9405C157.886 58.256 157.623 59.7108 157.623 61.3054C157.623 62.88 157.886 64.3455 158.411 65.7005C158.936 67.0562 159.669 68.2271 160.61 69.2138C161.551 70.2 162.661 70.9779 163.938 71.5457C165.216 72.114 166.608 72.3979 168.114 72.3979H179.822V68.6007H168.114C167.143 68.6007 166.246 68.4212 165.425 68.0624C164.602 67.7036 163.894 67.2102 163.3 66.5828C162.705 65.9549 162.239 65.2024 161.903 64.3254C161.566 63.4484 161.398 62.5011 161.398 61.4849C161.398 60.4485 161.566 59.5018 161.903 58.6443C162.239 57.788 162.705 57.0502 163.3 56.4317C163.894 55.8144 164.602 55.331 165.425 54.9817C166.246 54.6335 167.143 54.4588 168.114 54.4588H179.822V50.6615H168.114C166.608 50.6615 165.216 50.9159 163.938 51.4241ZM137.078 54.4588H152.62V50.6615H133.333V72.3979H152.65V68.6007H137.078V54.4588ZM151.817 59.7509H139.841V62.9503H151.817V59.7509ZM108.065 54.4588H116.267V72.3979H120.042V54.4588H128.243V50.6615H108.065V54.4588Z" fill="#143B25"/>
<path fill-rule="evenodd" clip-rule="evenodd" d="M413.157 87.5455C413.157 87.1708 413.521 86.9707 414.08 86.9707C414.558 86.9707 415.277 87.1708 415.942 87.5626L416.421 86.5528C415.827 86.1692 415.002 85.9084 414.177 85.9084C412.785 85.9084 411.853 86.5877 411.853 87.65C411.853 89.8189 415.188 89.0959 415.188 90.3678C415.188 90.7945 414.789 91.0382 414.124 91.0382C413.459 91.0382 412.616 90.6983 411.977 90.1411L411.481 91.1255C412.146 91.7086 413.113 92.1011 414.106 92.1011C415.472 92.1011 416.483 91.4389 416.483 90.2981C416.492 88.1115 413.157 88.7825 413.157 87.5455ZM406.771 87.5455C406.771 87.1708 407.134 86.9707 407.693 86.9707C408.172 86.9707 408.891 87.1708 409.556 87.5626L410.035 86.5528C409.441 86.1692 408.616 85.9084 407.791 85.9084C406.398 85.9084 405.467 86.5877 405.467 87.65C405.467 89.8189 408.802 89.0959 408.802 90.3678C408.802 90.7945 408.403 91.0382 407.738 91.0382C407.072 91.0382 406.23 90.6983 405.591 90.1411L405.094 91.1255C405.76 91.7086 406.727 92.1011 407.72 92.1011C409.086 92.1011 410.097 91.4389 410.097 90.2981C410.106 88.1115 406.771 88.7825 406.771 87.5455ZM400.151 89.5055H403.167V88.4863H400.151V86.9795H403.513V85.9603H398.963V92.0574H403.62V91.0382H400.151V89.5055ZM395.496 90.1323L392.294 85.9603H391.168V92.0574H392.33V87.8937L395.523 92.0574H396.649V85.9603H395.496V90.1323ZM387.683 92.0574H388.871V85.9603H387.683V92.0574ZM382.403 87.5455C382.403 87.1708 382.767 86.9707 383.326 86.9707C383.804 86.9707 384.523 87.1708 385.188 87.5626L385.667 86.5528C385.073 86.1692 384.248 85.9084 383.423 85.9084C382.03 85.9084 381.099 86.5877 381.099 87.65C381.099 89.8189 384.434 89.0959 384.434 90.3678C384.434 90.7945 384.035 91.0382 383.37 91.0382C382.705 91.0382 381.862 90.6983 381.224 90.1411L380.727 91.1255C381.392 91.7086 382.359 92.1011 383.352 92.1011C384.718 92.1011 385.729 91.4389 385.729 90.2981C385.738 88.1115 382.403 88.7825 382.403 87.5455ZM377.915 89.5138C377.915 90.4893 377.321 91.0642 376.38 91.0642C375.44 91.0642 374.81 90.4811 374.81 89.5138V85.9603H373.622V89.5138C373.622 91.1167 374.686 92.1094 376.38 92.1094C378.066 92.1094 379.103 91.1167 379.103 89.5138V85.9603H377.915V89.5138ZM369.353 91.0471H367.845V89.4359H369.353C370.107 89.427 370.559 89.7315 370.559 90.2285C370.559 90.7508 370.107 91.0559 369.353 91.0471ZM367.845 86.9707H369.353C369.965 86.9618 370.338 87.2321 370.338 87.6936C370.338 88.1729 369.965 88.4514 369.353 88.4514H367.845V86.9707ZM370.47 88.8345C371.145 88.6692 371.552 88.1552 371.552 87.4847C371.552 86.544 370.737 85.9603 369.415 85.9603H366.656V92.0574H369.495C370.914 92.0574 371.792 91.4212 371.792 90.376C371.792 89.5663 371.295 88.9826 370.47 88.8345ZM358.396 89.2352H356.994V86.9795H358.396C359.283 86.9795 359.78 87.3454 359.78 88.0944C359.78 88.861 359.283 89.2352 358.396 89.2352ZM360.915 88.0596C360.915 86.7181 360.001 85.9603 358.396 85.9603H355.806V92.0574H356.994V90.2633H358.396C358.476 90.2633 358.547 90.2633 358.618 90.2544L359.691 92.0574H361.048L359.682 90.0367C360.481 89.7056 360.915 89.0174 360.915 88.0596ZM352.387 89.5138C352.387 90.4893 351.794 91.0642 350.853 91.0642C349.913 91.0642 349.283 90.4811 349.283 89.5138V85.9603H348.094V89.5138C348.094 91.1167 349.159 92.1094 350.853 92.1094C352.538 92.1094 353.576 91.1167 353.576 89.5138V85.9603H352.387V89.5138ZM343.043 91.0642C341.899 91.0642 340.932 90.1588 340.932 89.0086C340.932 87.8589 341.89 86.9707 343.043 86.9707C344.178 86.9707 345.119 87.8589 345.119 89.0086C345.119 90.1588 344.178 91.0642 343.043 91.0642ZM343.026 85.9255C341.154 85.9255 339.717 87.2492 339.717 89.0086C339.717 90.7596 341.154 92.1094 343.026 92.1094C344.897 92.1094 346.334 90.7596 346.334 89.0086C346.334 87.2581 344.897 85.9255 343.026 85.9255ZM336.143 88.8256L334.449 85.9603H333.242L335.557 90.1063V92.0574H336.746V90.0626L339.008 85.9603H337.81L336.143 88.8256ZM325.753 89.2352H324.352V86.9795H325.753C326.641 86.9795 327.137 87.3454 327.137 88.0944C327.137 88.861 326.641 89.2352 325.753 89.2352ZM328.273 88.0596C328.273 86.7181 327.359 85.9603 325.753 85.9603H323.163V92.0574H324.352V90.2633H325.753C325.833 90.2633 325.905 90.2633 325.975 90.2544L327.048 92.0574H328.406L327.04 90.0367C327.838 89.7056 328.273 89.0174 328.273 88.0596ZM317.991 91.0642C316.846 91.0642 315.879 90.1588 315.879 89.0086C315.879 87.8589 316.837 86.9707 317.991 86.9707C319.126 86.9707 320.066 87.8589 320.066 89.0086C320.066 90.1588 319.126 91.0642 317.991 91.0642ZM317.973 85.9255C316.101 85.9255 314.664 87.2492 314.664 89.0086C314.664 90.7596 316.101 92.1094 317.973 92.1094C319.844 92.1094 321.281 90.7596 321.281 89.0086C321.281 87.2581 319.844 85.9255 317.973 85.9255ZM309.176 92.0574H310.364V89.6448H313.176V88.6255H310.364V86.9795H313.451L313.46 85.9603H309.176V92.0574ZM300.286 87.5455C300.286 87.1708 300.649 86.9707 301.208 86.9707C301.688 86.9707 302.406 87.1708 303.071 87.5626L303.55 86.5528C302.956 86.1692 302.131 85.9084 301.306 85.9084C299.913 85.9084 298.982 86.5877 298.982 87.65C298.982 89.8189 302.317 89.0959 302.317 90.3678C302.317 90.7945 301.918 91.0382 301.253 91.0382C300.588 91.0382 299.745 90.6983 299.107 90.1411L298.609 91.1255C299.275 91.7086 300.242 92.1011 301.235 92.1011C302.601 92.1011 303.612 91.4389 303.612 90.2981C303.621 88.1115 300.286 88.7825 300.286 87.5455ZM295.679 90.1323L292.477 85.9603H291.35V92.0574H292.513V87.8937L295.705 92.0574H296.832V85.9603H295.679V90.1323ZM286.178 91.0642C285.033 91.0642 284.066 90.1588 284.066 89.0086C284.066 87.8589 285.024 86.9707 286.178 86.9707C287.313 86.9707 288.253 87.8589 288.253 89.0086C288.253 90.1588 287.313 91.0642 286.178 91.0642ZM286.16 85.9255C284.288 85.9255 282.851 87.2492 282.851 89.0086C282.851 90.7596 284.288 92.1094 286.16 92.1094C288.031 92.1094 289.468 90.7596 289.468 89.0086C289.468 87.2581 288.031 85.9255 286.16 85.9255ZM279.808 92.0574H280.996V85.9603H279.808V92.0574ZM273.172 86.9966H275.105V92.0574H276.303V86.9966H278.237V85.9603H273.172V86.9966ZM270.477 89.5138C270.477 90.4893 269.883 91.0642 268.943 91.0642C268.002 91.0642 267.373 90.4811 267.373 89.5138V85.9603H266.184V89.5138C266.184 91.1167 267.249 92.1094 268.943 92.1094C270.628 92.1094 271.666 91.1167 271.666 89.5138V85.9603H270.477V89.5138ZM262.113 85.9603H260.924V92.0574H264.791V91.0034H262.113V85.9603ZM255.751 91.0642C254.607 91.0642 253.64 90.1588 253.64 89.0086C253.64 87.8589 254.598 86.9707 255.751 86.9707C256.886 86.9707 257.827 87.8589 257.827 89.0086C257.827 90.1588 256.886 91.0642 255.751 91.0642ZM255.733 85.9255C253.862 85.9255 252.425 87.2492 252.425 89.0086C252.425 90.7596 253.862 92.1094 255.733 92.1094C257.605 92.1094 259.042 90.7596 259.042 89.0086C259.042 87.2581 257.605 85.9255 255.733 85.9255ZM247.651 87.5455C247.651 87.1708 248.015 86.9707 248.574 86.9707C249.053 86.9707 249.771 87.1708 250.436 87.5626L250.916 86.5528C250.321 86.1692 249.496 85.9084 248.671 85.9084C247.279 85.9084 246.347 86.5877 246.347 87.65C246.347 89.8189 249.683 89.0959 249.683 90.3678C249.683 90.7945 249.284 91.0382 248.618 91.0382C247.953 91.0382 247.11 90.6983 246.471 90.1411L245.975 91.1255C246.64 91.7086 247.607 92.1011 248.601 92.1011C249.966 92.1011 250.978 91.4389 250.978 90.2981C250.986 88.1115 247.651 88.7825 247.651 87.5455ZM237.422 89.5055H240.438V88.4863H237.422V86.9795H240.784V85.9603H236.234V92.0574H240.89V91.0382H237.422V89.5055ZM231.66 89.2352H230.259V86.9795H231.66C232.547 86.9795 233.044 87.3454 233.044 88.0944C233.044 88.861 232.547 89.2352 231.66 89.2352ZM234.179 88.0596C234.179 86.7181 233.266 85.9603 231.66 85.9603H229.07V92.0574H230.259V90.2633H231.66C231.74 90.2633 231.811 90.2633 231.882 90.2544L232.955 92.0574H234.312L232.946 90.0367C233.744 89.7056 234.179 89.0174 234.179 88.0596ZM223.104 89.7664L224.203 87.2056L225.285 89.7664H223.104ZM223.618 85.9603L220.895 92.0574H222.128L222.677 90.7685H225.711L226.261 92.0574H227.538L224.851 85.9603H223.618ZM217.894 90.7596L216.465 85.9603H215.295L213.876 90.7596L212.447 85.9603H211.17L213.228 92.0574H214.452L215.854 87.4847L217.237 92.0574H218.47L220.528 85.9603H219.304L217.894 90.7596ZM204.904 86.9966H206.837V92.0574H208.035V86.9966H209.969V85.9603H204.904V86.9966ZM199.37 92.0574H200.558V89.6448H203.369V88.6255H200.558V86.9795H203.644L203.653 85.9603H199.37V92.0574ZM194.196 91.0642C193.052 91.0642 192.085 90.1588 192.085 89.0086C192.085 87.8589 193.043 86.9707 194.196 86.9707C195.332 86.9707 196.272 87.8589 196.272 89.0086C196.272 90.1588 195.332 91.0642 194.196 91.0642ZM194.179 85.9255C192.307 85.9255 190.87 87.2492 190.87 89.0086C190.87 90.7596 192.307 92.1094 194.179 92.1094C196.05 92.1094 197.487 90.7596 197.487 89.0086C197.487 87.2581 196.05 85.9255 194.179 85.9255ZM186.097 87.5455C186.097 87.1708 186.46 86.9707 187.019 86.9707C187.498 86.9707 188.216 87.1708 188.882 87.5626L189.361 86.5528C188.767 86.1692 187.941 85.9084 187.117 85.9084C185.724 85.9084 184.793 86.5877 184.793 87.65C184.793 89.8189 188.128 89.0959 188.128 90.3678C188.128 90.7945 187.729 91.0382 187.064 91.0382C186.398 91.0382 185.555 90.6983 184.917 90.1411L184.42 91.1255C185.086 91.7086 186.052 92.1011 187.046 92.1011C188.412 92.1011 189.423 91.4389 189.423 90.2981C189.432 88.1115 186.097 88.7825 186.097 87.5455ZM175.867 89.5055H178.883V88.4863H175.867V86.9795H179.229V85.9603H174.679V92.0574H179.336V91.0382H175.867V89.5055ZM170.065 90.7596L168.238 85.9603H166.96L169.417 92.0574H170.65L173.134 85.9603H171.91L170.065 90.7596ZM164.245 92.0574H165.434V85.9603H164.245V92.0574ZM158.965 87.5455C158.965 87.1708 159.329 86.9707 159.888 86.9707C160.366 86.9707 161.085 87.1708 161.751 87.5626L162.229 86.5528C161.635 86.1692 160.81 85.9084 159.985 85.9084C158.593 85.9084 157.661 86.5877 157.661 87.65C157.661 89.8189 160.996 89.0959 160.996 90.3678C160.996 90.7945 160.597 91.0382 159.932 91.0382C159.267 91.0382 158.424 90.6983 157.786 90.1411L157.289 91.1255C157.954 91.7086 158.921 92.1011 159.914 92.1011C161.28 92.1011 162.291 91.4389 162.291 90.2981C162.3 88.1115 158.965 88.7825 158.965 87.5455ZM152.58 87.5455C152.58 87.1708 152.943 86.9707 153.502 86.9707C153.981 86.9707 154.699 87.1708 155.364 87.5626L155.843 86.5528C155.249 86.1692 154.424 85.9084 153.6 85.9084C152.206 85.9084 151.276 86.5877 151.276 87.65C151.276 89.8189 154.611 89.0959 154.611 90.3678C154.611 90.7945 154.211 91.0382 153.546 91.0382C152.881 91.0382 152.038 90.6983 151.4 90.1411L150.903 91.1255C151.568 91.7086 152.535 92.1011 153.528 92.1011C154.895 92.1011 155.906 91.4389 155.906 90.2981C155.915 88.1115 152.58 88.7825 152.58 87.5455ZM145.96 89.5055H148.975V88.4863H145.96V86.9795H149.321V85.9603H144.771V92.0574H149.428V91.0382H145.96V89.5055ZM140.198 89.2352H138.797V86.9795H140.198C141.085 86.9795 141.581 87.3454 141.581 88.0944C141.581 88.861 141.085 89.2352 140.198 89.2352ZM142.717 88.0596C142.717 86.7181 141.803 85.9603 140.198 85.9603H137.608V92.0574H138.797V90.2633H140.198C140.278 90.2633 140.349 90.2633 140.42 90.2544L141.493 92.0574H142.85L141.484 90.0367C142.283 89.7056 142.717 89.0174 142.717 88.0596ZM133.062 86.9618C133.692 86.9618 134.348 87.2233 134.819 87.65L135.493 86.7966C134.872 86.2654 133.958 85.9255 133.062 85.9255C131.164 85.9255 129.709 87.2581 129.709 89.0086C129.709 90.7596 131.138 92.1094 132.991 92.1094C133.852 92.1094 134.81 91.7871 135.448 91.3168V89.0263H134.41V90.6811C133.985 90.9166 133.497 91.0642 133.071 91.0642C131.874 91.0642 130.925 90.1671 130.925 89.0086C130.925 87.8589 131.865 86.9618 133.062 86.9618ZM124.983 91.0642C123.839 91.0642 122.873 90.1588 122.873 89.0086C122.873 87.8589 123.83 86.9707 124.983 86.9707C126.119 86.9707 127.059 87.8589 127.059 89.0086C127.059 90.1588 126.119 91.0642 124.983 91.0642ZM124.966 85.9255C123.094 85.9255 121.657 87.2492 121.657 89.0086C121.657 90.7596 123.094 92.1094 124.966 92.1094C126.837 92.1094 128.274 90.7596 128.274 89.0086C128.274 87.2581 126.837 85.9255 124.966 85.9255ZM117.597 89.2352H116.196V86.9795H117.597C118.484 86.9795 118.982 87.3454 118.982 88.0944C118.982 88.861 118.484 89.2352 117.597 89.2352ZM120.117 88.0596C120.117 86.7181 119.203 85.9603 117.597 85.9603H115.008V92.0574H116.196V90.2633H117.597C117.678 90.2633 117.748 90.2633 117.819 90.2544L118.892 92.0574H120.249L118.884 90.0367C119.682 89.7056 120.117 89.0174 120.117 88.0596ZM110.724 89.2352H109.428V86.9795H110.724C111.611 86.9795 112.116 87.3454 112.116 88.0944C112.116 88.861 111.611 89.2352 110.724 89.2352ZM110.786 85.9603H108.24V92.0574H109.428V90.2633H110.786C112.347 90.2633 113.243 89.453 113.243 88.0596C113.243 86.7181 112.347 85.9603 110.786 85.9603Z" fill="#143B25"/>
<path fill-rule="evenodd" clip-rule="evenodd" d="M8.30176 47.964V8.03481H91.4146V91.4248H51.66V76.6213H76.8094V22.8867H22.982V47.9888L8.30176 47.964Z" fill="#40BA77"/>
<path fill-rule="evenodd" clip-rule="evenodd" d="M31.8994 48.004V31.7564H67.7948V67.7686H51.6218V48.0377L31.8994 48.004Z" fill="#143B25"/>
<path fill-rule="evenodd" clip-rule="evenodd" d="M8.31465 55.3285H44.2384V91.3418H29.665V70.0145H8.23438L8.31465 55.3285Z" fill="#40BA77"/>
<path fill-rule="evenodd" clip-rule="evenodd" d="M20.0398 91.29H8.35547V79.6057H20.0398V91.29Z" fill="#40BA77"/>
</svg>
