<svg width="229" height="106" viewBox="0 0 229 106" fill="none" xmlns="http://www.w3.org/2000/svg">
<path d="M10.1162 21.1434C10.3733 21.1178 10.6319 21.1766 10.8525 21.3107C11.0374 21.4441 11.1915 21.6152 11.3046 21.8128L26.3929 49.4537C26.4483 49.5715 26.5388 49.6693 26.6521 49.7338C26.7654 49.7984 26.896 49.8264 27.0259 49.8141H27.3231C27.4441 49.8144 27.5628 49.7807 27.6655 49.717C27.7683 49.6532 27.851 49.562 27.9043 49.4537L42.7342 21.8128C42.843 21.5931 43.016 21.4116 43.2306 21.292C43.4451 21.1725 43.6909 21.1206 43.9357 21.1434H50.6788C51.0923 21.1434 51.3377 21.2592 51.4281 21.4909C51.466 21.6338 51.474 21.783 51.4518 21.9291C51.4296 22.0753 51.3776 22.2153 51.2989 22.3406L34.3892 53.2258C33.8009 54.462 32.913 55.5327 31.8055 56.3414C30.9424 56.8755 29.9404 57.1442 28.9249 57.1138H26.0312C24.8703 57.1642 23.7178 56.897 22.6984 56.3414C21.5787 55.5457 20.6879 54.4715 20.1148 53.2258L2.95959 22.3277C2.87456 22.2075 2.81472 22.0714 2.78365 21.9277C2.75258 21.7839 2.7509 21.6354 2.77873 21.4909C2.86916 21.2592 3.12752 21.1434 3.57965 21.1434H10.1162ZM62.4343 21.1434C62.5888 21.1237 62.7458 21.14 62.893 21.191C63.0401 21.2421 63.1734 21.3264 63.2823 21.4375C63.3912 21.5485 63.4729 21.6832 63.5207 21.831C63.5686 21.9788 63.5813 22.1356 63.5582 22.2891V55.9809C63.5797 56.133 63.5654 56.288 63.5166 56.4337C63.4677 56.5793 63.3855 56.7117 63.2765 56.8203C63.1675 56.9289 63.0348 57.0108 62.8886 57.0595C62.7424 57.1082 62.5869 57.1224 62.4343 57.1009H56.8666C56.0786 57.1009 55.6911 56.7276 55.6911 55.9809V22.3277C55.6715 22.1704 55.6886 22.0105 55.7412 21.8608C55.7937 21.7111 55.8803 21.5755 55.994 21.4647C56.1078 21.3538 56.2458 21.2705 56.3971 21.2215C56.5485 21.1724 56.7091 21.1589 56.8666 21.1819L62.4343 21.1434ZM106.24 21.1434C106.402 21.1127 106.569 21.1222 106.726 21.1711C106.884 21.22 107.027 21.3068 107.144 21.4237C107.26 21.5407 107.345 21.6843 107.393 21.842C107.44 21.9996 107.447 22.1664 107.415 22.3277V27.1555C107.436 27.3094 107.422 27.466 107.372 27.6132C107.323 27.7604 107.24 27.8941 107.129 28.004C107.02 28.1137 106.885 28.1966 106.737 28.2459C106.59 28.2953 106.432 28.3099 106.278 28.2885H80.442C80.0514 28.2472 79.6564 28.2953 79.2868 28.4291C78.9172 28.563 78.5833 28.7791 78.3102 29.0609C77.8775 29.6727 77.6633 30.4119 77.7033 31.1594V32.9103C77.7033 34.8286 78.5949 35.7941 80.3904 35.7941H99.6638C100.884 35.6994 102.111 35.8525 103.27 36.2442C104.43 36.6359 105.496 37.258 106.407 38.0729C107.21 38.9566 107.828 39.9918 108.223 41.1173C108.618 42.2428 108.782 43.4358 108.707 44.6259V48.7327C108.756 49.8395 108.586 50.9452 108.204 51.9859C107.823 53.0267 107.238 53.9819 106.485 54.7964C105.021 56.3242 102.747 57.0881 99.6638 57.0881H71.0377C70.2497 57.0881 69.8492 56.7147 69.8492 55.968V51.0758C69.8492 50.3291 70.2497 49.9557 71.0377 49.9557H98.1659C98.5543 49.995 98.9471 49.946 99.3138 49.8121C99.6812 49.6783 100.012 49.4634 100.284 49.1833C100.717 48.5667 100.931 47.8235 100.892 47.072V44.9863C100.892 43.0681 99.9999 42.1154 98.2174 42.1154H78.8403C77.6176 42.2057 76.3884 42.0493 75.2281 41.6555C74.0671 41.2618 72.9976 40.6387 72.084 39.8237C71.2854 38.938 70.6729 37.9018 70.2824 36.7764C69.8919 35.651 69.7314 34.459 69.8104 33.2708V29.5244C69.7592 28.4184 69.928 27.3133 70.3071 26.2726C70.6862 25.2319 71.2682 24.2762 72.0195 23.4607C73.4921 21.9157 75.8046 21.1434 78.918 21.1434H106.24ZM121.353 21.1434C121.508 21.1237 121.665 21.14 121.812 21.191C121.96 21.2421 122.093 21.3264 122.201 21.4375C122.31 21.5485 122.392 21.6832 122.44 21.831C122.488 21.9788 122.501 22.1356 122.477 22.2891V55.9809C122.499 56.133 122.485 56.288 122.436 56.4337C122.387 56.5793 122.305 56.7117 122.196 56.8203C122.087 56.9289 121.954 57.0108 121.808 57.0595C121.661 57.1082 121.506 57.1224 121.353 57.1009H115.786C114.985 57.1009 114.584 56.7276 114.584 55.9809V22.3277C114.584 21.5681 114.985 21.1819 115.786 21.1819L121.353 21.1434Z" fill="black"/>
<path d="M189.664 21.1433C190.355 21.136 191.045 21.1747 191.731 21.2592C192.231 21.311 192.717 21.455 193.165 21.6841C193.605 21.9334 194.005 22.2457 194.353 22.611C194.812 23.1106 195.243 23.6349 195.645 24.1816L214.816 49.2477C214.884 49.3631 214.982 49.4579 215.101 49.5214C215.22 49.5849 215.353 49.6149 215.487 49.6081H215.927C216.211 49.6081 216.353 49.4279 216.353 49.0932V22.3277C216.33 22.1742 216.342 22.0174 216.39 21.8696C216.438 21.7218 216.52 21.5872 216.629 21.4761C216.738 21.365 216.871 21.2807 217.018 21.2297C217.165 21.1787 217.322 21.1623 217.477 21.182H222.889C223.045 21.1601 223.203 21.1747 223.352 21.2248C223.501 21.2749 223.636 21.359 223.746 21.4702C223.857 21.5816 223.94 21.7171 223.988 21.866C224.037 22.0149 224.05 22.173 224.026 22.3277V51.7582C224.026 53.8566 223.651 55.2728 222.889 56.0066C221.913 56.8172 220.655 57.2105 219.389 57.1009H214.957C214.293 57.1093 213.629 57.0792 212.968 57.0108C212.478 56.9572 212.002 56.8177 211.56 56.5989C211.11 56.3647 210.7 56.0605 210.345 55.6977C209.85 55.1908 209.393 54.6487 208.977 54.0755L189.767 29.0095C189.689 28.9036 189.588 28.8163 189.472 28.754C189.356 28.6916 189.227 28.6557 189.096 28.649H188.63C188.36 28.649 188.217 28.8164 188.217 29.164V55.9809C188.239 56.133 188.225 56.288 188.176 56.4337C188.127 56.5793 188.044 56.7117 187.936 56.8203C187.827 56.9289 187.694 57.0108 187.548 57.0595C187.401 57.1082 187.246 57.1224 187.093 57.1009H181.681C180.893 57.1009 180.492 56.7276 180.492 55.9809V26.4861C180.492 24.4005 180.867 22.9972 181.629 22.2634C182.602 21.4435 183.86 21.0408 185.13 21.1433H189.664Z" fill="black"/>
<path fill-rule="evenodd" clip-rule="evenodd" d="M150.845 32.4597C151.995 32.4597 153.118 32.7992 154.073 33.4352C155.03 34.0712 155.775 34.9753 156.215 36.0331C156.655 37.091 156.771 38.2552 156.548 39.3786C156.324 40.5021 155.772 41.5344 154.961 42.3452C154.149 43.1558 153.114 43.7086 151.987 43.9336C150.861 44.1586 149.692 44.0457 148.629 43.6092C147.567 43.1727 146.658 42.4321 146.018 41.4811C145.378 40.5301 145.035 39.4113 145.032 38.266C145.032 36.7283 145.645 35.2534 146.734 34.1649C147.824 33.0764 149.302 32.4631 150.845 32.4597Z" fill="#0066FF"/>
<path fill-rule="evenodd" clip-rule="evenodd" d="M149.114 35.6268C149.414 35.6302 149.7 35.751 149.909 35.9631C150.12 36.1752 150.238 36.4615 150.238 36.7597C150.238 37.0567 150.12 37.3417 149.909 37.5517C149.698 37.7618 149.412 37.8798 149.114 37.8798C148.816 37.8798 148.531 37.7618 148.319 37.5517C148.109 37.3417 147.99 37.0567 147.99 36.7597C147.99 36.4615 148.108 36.1752 148.319 35.9631C148.529 35.751 148.815 35.6302 149.114 35.6268Z" fill="white"/>
<path fill-rule="evenodd" clip-rule="evenodd" d="M140.162 20.7442H162.523C163.697 20.7407 164.866 20.9188 165.985 21.2721L158.235 27.9666H141.532C140.274 27.97 139.069 28.4685 138.179 29.3535C137.288 30.2384 136.785 31.4382 136.778 32.6915V44.8705C136.781 45.3497 136.851 45.8262 136.984 46.2866L130.745 51.6551C129.379 49.7219 128.649 47.4148 128.653 45.0507V32.1765C128.673 29.1441 129.893 26.2422 132.048 24.1015C134.203 21.9608 137.119 20.7544 140.162 20.7442ZM172.664 26.7951C173.572 28.4629 174.048 30.3305 174.046 32.228V45.1022C174.04 48.1458 172.823 51.0628 170.664 53.215C168.504 55.3671 165.577 56.5792 162.523 56.586H140.162C139.556 56.5863 138.951 56.5346 138.354 56.4315L146.169 49.5953H161.232C162.488 49.5919 163.692 49.093 164.58 48.2076C165.468 47.3223 165.969 46.1225 165.972 44.8705V32.5241L172.664 26.7951Z" fill="black"/>
<path d="M25.7084 80.0557V66.9883H23.2668V80.0557H25.7084ZM52.3842 75.1117L45.9251 67.0141H43.9745V80.0557H46.4289V71.2497L53.3272 80.0687H54.8644V66.9883H52.3842V75.1117ZM75.3269 80.081V75.2274H81.9022V72.949H75.3269V69.3958H82.2768V67.0269H72.8591V80.0557L75.3269 80.081ZM106.33 66.7694C105.424 66.7413 104.522 66.9011 103.682 67.2389C102.841 67.5766 102.08 68.0849 101.447 68.7314C100.815 69.3779 100.323 70.1485 100.005 70.9942C99.6871 71.84 99.5491 72.7428 99.5992 73.6443C99.56 74.5488 99.7045 75.4525 100.024 76.2997C100.344 77.1477 100.833 77.9219 101.462 78.576C102.09 79.2301 102.844 79.7511 103.68 80.1063C104.515 80.4623 105.415 80.6454 106.323 80.6454C107.232 80.6454 108.131 80.4623 108.967 80.1063C109.803 79.7511 110.557 79.2301 111.186 78.576C111.814 77.9219 112.302 77.1477 112.623 76.2997C112.943 75.4525 113.087 74.5488 113.047 73.6443C113.108 72.7421 112.977 71.8367 112.663 70.988C112.35 70.1392 111.86 69.366 111.226 68.7185C110.592 68.071 109.829 67.564 108.985 67.2304C108.141 66.8968 107.237 66.7441 106.33 66.7823V66.7694ZM106.33 68.9967C106.93 68.988 107.526 69.1062 108.077 69.3435C108.628 69.5808 109.122 69.9317 109.527 70.3733C109.933 70.8148 110.24 71.3368 110.428 71.9051C110.616 72.4736 110.681 73.0749 110.619 73.6704C110.619 74.8034 110.167 75.8909 109.363 76.6926C108.558 77.4936 107.468 77.9444 106.33 77.9444C105.192 77.9444 104.102 77.4936 103.297 76.6926C102.493 75.8909 102.041 74.8034 102.041 73.6704C101.977 73.0742 102.041 72.4707 102.228 71.9011C102.415 71.3313 102.721 70.8076 103.127 70.3647C103.532 69.9217 104.027 69.5695 104.579 69.3315C105.132 69.0934 105.729 68.975 106.33 68.9838V68.9967ZM133.225 80.081H135.693V69.2284H139.852V66.9883H129.014V69.2284H133.161L133.225 80.081ZM166.838 77.6868H159.475V74.687H166.567V72.3955H159.475V69.37H166.838V66.9883H157.033V80.0557H166.838V77.6868ZM194.34 76.7599C193.449 77.5869 192.277 78.0464 191.059 78.0471C190.462 78.0942 189.86 78.0131 189.296 77.8091C188.732 77.605 188.219 77.283 187.79 76.8641C187.362 76.4459 187.029 75.9409 186.812 75.383C186.597 74.8259 186.503 74.2282 186.538 73.6313C186.502 73.0293 186.595 72.4266 186.81 71.8624C187.024 71.2984 187.356 70.7857 187.782 70.358C188.209 69.9303 188.721 69.5971 189.286 69.3803C189.851 69.1635 190.455 69.0679 191.059 69.0997C192.235 69.098 193.364 69.5609 194.199 70.3871L195.813 68.6748C194.543 67.4069 192.818 66.6938 191.021 66.6922C190.099 66.6406 189.177 66.7827 188.313 67.1092C187.45 67.4358 186.665 67.9394 186.01 68.5876C185.355 69.2359 184.843 70.0141 184.509 70.872C184.175 71.7297 184.026 72.648 184.071 73.5669C184.026 74.48 184.176 75.3917 184.512 76.2419C184.848 77.092 185.363 77.8612 186.02 78.4979C186.677 79.1346 187.463 79.6252 188.326 79.9356C189.187 80.2467 190.107 80.3704 191.021 80.3003C191.936 80.3212 192.845 80.1599 193.697 79.8263C194.549 79.492 195.326 78.9928 195.981 78.3561L194.34 76.7599ZM224.53 80.1071V67.0269H222.076V72.5373H215.617V67.0269H213.149V80.0557H215.617V74.8027H222.076V80.0557L224.53 80.1071Z" fill="#0066FF"/>
<path d="M50.3584 88.4308L47.8744 95.0773H46.8808L44.3625 88.4308H45.2876L47.3776 94.1504L49.4505 88.4308H50.3584ZM52.9453 88.4308V95.0773H52.0887V88.4308H52.9453ZM55.926 94.3219H59.1639V95.0773H54.9324V94.3907L58.136 89.2383H54.9324V88.4821H59.1296V89.1695L55.926 94.3219ZM65.2112 88.4308V89.1348H63.498V95.0773H62.6243V89.1348H60.6714V88.4308H65.2112ZM67.9007 89.1348V91.3163H70.3505V92.0203H67.8664V94.3045H70.5731V95.0259H66.9242V88.4308H70.5047V89.1348H67.9007ZM72.3548 91.7627C72.3561 91.1615 72.5093 90.571 72.8003 90.045C73.0689 89.5378 73.4799 89.1196 73.9823 88.8432C74.5029 88.5415 75.0946 88.3874 75.6951 88.396C76.3645 88.3881 77.023 88.5668 77.5966 88.9119C78.1325 89.278 78.5449 89.799 78.7787 90.4061H77.7339C77.5625 90.0334 77.2895 89.718 76.9461 89.4958C76.57 89.2636 76.1365 89.1449 75.6951 89.1522C75.2551 89.1493 74.8223 89.2679 74.4448 89.4958C74.0738 89.7042 73.7746 90.0219 73.588 90.4061C73.368 90.8424 73.257 91.3257 73.2628 91.8141C73.2591 92.2916 73.3702 92.7634 73.588 93.1881C73.7797 93.5687 74.0774 93.8849 74.4448 94.0983C74.8238 94.3197 75.2565 94.4326 75.6951 94.4247C76.1322 94.4348 76.5634 94.3284 76.9461 94.1157C77.2939 93.8907 77.5676 93.5687 77.7339 93.1881H78.7787C78.5543 93.7952 78.1397 94.314 77.5966 94.6656C77.0506 94.9738 76.4342 95.1359 75.8069 95.1359C75.1796 95.1359 74.5631 94.9738 74.0164 94.6656C73.5212 94.3791 73.1132 93.9638 72.8344 93.4631C72.5421 92.9385 72.3889 92.3466 72.3891 91.7454L72.3548 91.7627ZM85.8883 88.4308V95.0773H85.0315V92.055H81.6059V95.0773H80.7492V88.4308H81.6059V91.3163H85.0315V88.396L85.8883 88.4308ZM93.5119 95.146C93.1184 95.1468 92.7285 95.0708 92.364 94.9232C92.0264 94.7922 91.7382 94.5578 91.5414 94.2532C91.3483 93.9753 91.2408 93.6468 91.2336 93.3082H92.1586C92.1876 93.6034 92.3212 93.8777 92.5354 94.0817C92.8055 94.3147 93.1562 94.4319 93.5119 94.408C93.8648 94.4333 94.214 94.3226 94.4885 94.0983C94.6076 94.005 94.7041 93.8856 94.7695 93.7481C94.8348 93.6114 94.8675 93.4609 94.8653 93.3082C94.8704 93.0817 94.7905 92.8611 94.6424 92.6903C94.5052 92.5268 94.328 92.4023 94.1284 92.3293C93.8554 92.2178 93.5751 92.1259 93.289 92.055C92.9267 91.9682 92.5717 91.8539 92.2268 91.7114C91.9226 91.5985 91.6641 91.3865 91.4935 91.1094C91.3229 90.8322 91.2495 90.5059 91.2844 90.1825C91.2822 89.8446 91.3708 89.5125 91.5414 89.2209C91.7396 88.9387 92.0126 88.7187 92.3299 88.5856C92.6849 88.4235 93.0705 88.3411 93.4604 88.3447C94.0144 88.3186 94.5604 88.4887 95.0018 88.8258C95.1891 88.9727 95.3438 89.1572 95.4556 89.367C95.5674 89.5769 95.6349 89.8077 95.6531 90.045H94.6765C94.6272 89.7831 94.4878 89.5458 94.283 89.375C94.0166 89.1746 93.6898 89.0718 93.3573 89.0834C93.0356 89.0711 92.7198 89.1746 92.4664 89.375C92.3546 89.4698 92.2653 89.5877 92.2065 89.7223C92.1469 89.8562 92.1186 90.0016 92.1244 90.1485C92.1135 90.3677 92.1869 90.5826 92.3299 90.749C92.4671 90.9002 92.637 91.0175 92.8265 91.0927C93.032 91.1788 93.3232 91.2649 93.6659 91.3677C94.0282 91.4617 94.3832 91.5818 94.7281 91.7287C95.0004 91.8488 95.2407 92.0312 95.4302 92.2605C95.6153 92.5586 95.7054 92.9067 95.6872 93.2569C95.6894 93.5817 95.6066 93.9015 95.4476 94.1844C95.2596 94.4854 94.9931 94.7293 94.6765 94.8885C94.3012 95.0636 93.8917 95.1518 93.4778 95.146H93.5119ZM100.775 95.146C100.176 95.1554 99.5862 95.0078 99.062 94.717C98.5566 94.4254 98.137 94.0043 97.8458 93.4978C97.5561 92.9725 97.408 92.3799 97.4174 91.7801C97.4138 91.1803 97.5612 90.5898 97.8458 90.0624C98.1406 89.5573 98.5639 89.1399 99.0729 88.8533C99.5818 88.5668 100.158 88.4207 100.741 88.4308C101.34 88.4163 101.932 88.5646 102.454 88.8598C102.954 89.1464 103.368 89.5617 103.654 90.0624C103.943 90.5877 104.091 91.1795 104.082 91.7801C104.085 92.3792 103.937 92.9703 103.654 93.4978C103.36 93.9927 102.948 94.4058 102.454 94.6996C101.931 94.9905 101.34 95.1388 100.741 95.1294L100.775 95.146ZM100.775 94.3907C101.214 94.3986 101.647 94.2857 102.026 94.0643C102.403 93.8494 102.707 93.526 102.9 93.1367C103.117 92.712 103.229 92.2403 103.225 91.7627C103.231 91.2736 103.119 90.791 102.9 90.3547C102.706 89.9698 102.402 89.6529 102.026 89.4437C101.648 89.2166 101.215 89.0979 100.775 89.1008C100.335 89.0957 99.9013 89.2151 99.5245 89.4437C99.144 89.6514 98.834 89.969 98.6343 90.3547C98.4339 90.7961 98.3344 91.2772 98.3424 91.7627C98.3366 92.2366 98.4361 92.7062 98.6343 93.1367C98.8325 93.5275 99.1426 93.8502 99.5245 94.0643C99.9027 94.2879 100.336 94.4015 100.775 94.3907ZM109.752 88.4308V89.1348H106.84V91.3163H109.169V92.0029H106.84V95.0093H105.966V88.4308H109.752ZM115.628 88.4308V89.1348H113.915V95.0773H113.024V89.1348H111.311V88.4308H115.628ZM122.857 95.146C122.453 95.1468 122.052 95.0715 121.675 94.9232C121.35 94.7792 121.072 94.5469 120.87 94.2532C120.665 93.9818 120.557 93.649 120.562 93.3082H121.487C121.497 93.4573 121.537 93.6027 121.605 93.7358C121.672 93.8683 121.767 93.9862 121.881 94.0817C122.013 94.1996 122.167 94.2894 122.336 94.3458C122.504 94.4015 122.681 94.4225 122.857 94.408C123.209 94.4268 123.556 94.3169 123.834 94.0983C123.951 94.0043 124.045 93.8842 124.107 93.7467C124.17 93.6092 124.2 93.4594 124.194 93.3082C124.206 93.0839 124.131 92.8632 123.988 92.6903C123.842 92.5304 123.66 92.4067 123.457 92.3293C123.178 92.2178 122.892 92.1259 122.6 92.055C122.244 91.966 121.895 91.851 121.555 91.7114C121.287 91.6006 121.056 91.4154 120.887 91.1788C120.683 90.8887 120.58 90.5378 120.596 90.1825C120.596 89.8403 120.696 89.5052 120.887 89.2209C121.075 88.9373 121.344 88.7159 121.658 88.5856C122.018 88.4199 122.41 88.3374 122.806 88.3447C123.35 88.3165 123.886 88.4872 124.314 88.8258C124.507 88.9691 124.667 89.1522 124.786 89.362C124.904 89.5725 124.977 89.8048 124.999 90.045H124.057C124.007 89.7787 123.86 89.54 123.646 89.375C123.381 89.1724 123.053 89.0689 122.72 89.0834C122.398 89.0711 122.083 89.1746 121.83 89.375C121.717 89.4698 121.628 89.5877 121.569 89.7223C121.51 89.8562 121.481 90.0016 121.487 90.1485C121.476 90.3677 121.55 90.5826 121.693 90.749C121.836 90.8923 122.005 91.0088 122.189 91.0927C122.469 91.202 122.755 91.2939 123.046 91.3677C123.402 91.461 123.752 91.5818 124.091 91.7287C124.358 91.8488 124.593 92.0312 124.776 92.2605C124.973 92.555 125.075 92.903 125.067 93.2569C125.072 93.5846 124.982 93.9059 124.81 94.1844C124.625 94.4818 124.365 94.7242 124.057 94.8885C123.679 95.0585 123.271 95.146 122.857 95.146ZM130.104 95.146C129.506 95.1497 128.917 95.0021 128.391 94.717C127.891 94.4283 127.482 94.0064 127.209 93.4978C126.907 92.9761 126.753 92.3821 126.763 91.7801C126.759 91.1781 126.913 90.5862 127.209 90.0624C127.483 89.5588 127.892 89.1427 128.391 88.8598C128.915 88.569 129.505 88.4214 130.104 88.4308C130.703 88.4163 131.295 88.5646 131.817 88.8598C132.32 89.1413 132.735 89.5573 133.016 90.0624C133.306 90.5877 133.454 91.1795 133.445 91.7801C133.448 92.3792 133.3 92.9703 133.016 93.4978C132.731 93.9985 132.316 94.4138 131.817 94.6996C131.293 94.9905 130.702 95.1388 130.104 95.1294V95.146ZM130.104 94.3907C130.543 94.3986 130.975 94.2857 131.354 94.0643C131.731 93.8494 132.035 93.526 132.228 93.1367C132.441 92.7106 132.547 92.2388 132.536 91.7627C132.548 91.275 132.442 90.7924 132.228 90.3547C132.042 89.9705 131.743 89.6529 131.372 89.4437C130.988 89.2166 130.55 89.0979 130.104 89.1008C129.663 89.0957 129.23 89.2151 128.853 89.4437C128.478 89.6529 128.173 89.9698 127.98 90.3547C127.752 90.7881 127.64 91.2729 127.654 91.7627C127.641 92.2417 127.754 92.7149 127.98 93.1367C128.172 93.526 128.476 93.8494 128.853 94.0643C129.233 94.2857 129.665 94.3986 130.104 94.3907ZM136.202 94.3907H138.532V95.0947H135.346V88.4308H136.202V94.3907ZM141.051 88.4481V92.6556C141.033 92.8951 141.064 93.1353 141.14 93.3618C141.217 93.589 141.338 93.7988 141.496 93.9782C141.837 94.2445 142.255 94.3892 142.687 94.3892C143.118 94.3892 143.537 94.2445 143.877 93.9782C144.036 93.7988 144.156 93.589 144.233 93.3618C144.309 93.1353 144.34 92.8951 144.323 92.6556V88.4308H145.179V92.6389C145.192 93.1194 145.074 93.5947 144.837 94.013C144.641 94.3885 144.328 94.6895 143.946 94.8718C143.548 95.0527 143.115 95.1468 142.678 95.1468C142.241 95.1468 141.809 95.0527 141.41 94.8718C141.028 94.6895 140.716 94.3885 140.519 94.013C140.288 93.5933 140.175 93.1179 140.194 92.6389V88.4308L141.051 88.4481ZM151.466 88.4481V89.1522H149.668V95.0947H148.811V89.1348H146.978V88.4308L151.466 88.4481ZM154.156 88.4481V95.0947H153.3V88.4308L154.156 88.4481ZM159.433 95.146C158.834 95.1554 158.243 95.0078 157.719 94.717C157.215 94.429 156.8 94.0072 156.52 93.4978C156.213 92.9776 156.053 92.3842 156.057 91.7801C156.059 91.1766 156.218 90.5841 156.52 90.0624C156.801 89.5573 157.216 89.1413 157.719 88.8598C158.24 88.5625 158.833 88.4134 159.433 88.4308C160.032 88.4163 160.623 88.5646 161.145 88.8598C161.649 89.1413 162.064 89.5573 162.345 90.0624C162.64 90.5862 162.794 91.1781 162.79 91.7801C162.787 92.3806 162.634 92.971 162.345 93.4978C162.06 93.9985 161.645 94.4138 161.145 94.6996C160.622 94.9905 160.031 95.1388 159.433 95.1294V95.146ZM159.433 94.3907C159.871 94.3986 160.304 94.2857 160.683 94.0643C161.064 93.8545 161.37 93.5304 161.556 93.1367C161.783 92.7149 161.895 92.2417 161.882 91.7627C161.896 91.2729 161.784 90.7881 161.556 90.3547C161.368 89.9661 161.063 89.6471 160.683 89.4437C160.308 89.2122 159.873 89.0928 159.433 89.1008C158.987 89.0979 158.548 89.2166 158.165 89.4437C157.797 89.6579 157.5 89.9741 157.308 90.3547C157.086 90.7895 156.98 91.2743 157 91.7627C156.981 92.2395 157.088 92.7135 157.308 93.1367C157.501 93.526 157.805 93.8494 158.182 94.0643C158.561 94.2843 158.994 94.3972 159.433 94.3907ZM169.882 95.0773H169.009L165.582 89.7874V95.0773H164.572V88.4308H165.445L168.871 93.7033V88.4308H169.746L169.882 95.0773ZM174.217 95.0773C173.817 95.0802 173.422 95.0042 173.051 94.8544C172.719 94.7155 172.433 94.4825 172.23 94.1844C172.036 93.9073 171.929 93.5781 171.921 93.2402H172.846C172.856 93.3885 172.896 93.534 172.964 93.6671C173.031 93.7995 173.125 93.9174 173.24 94.013C173.372 94.1302 173.528 94.2192 173.695 94.2756C173.863 94.3313 174.04 94.353 174.217 94.3393C174.569 94.3581 174.915 94.2481 175.193 94.0296C175.309 93.9348 175.4 93.814 175.459 93.6765C175.519 93.539 175.545 93.3893 175.535 93.2402C175.552 93.0174 175.484 92.7967 175.347 92.6216C175.204 92.4573 175.021 92.3336 174.816 92.2605C174.543 92.1491 174.262 92.0572 173.976 91.9863C173.615 91.8973 173.26 91.7823 172.914 91.6426C172.651 91.5247 172.42 91.3409 172.246 91.1101C172.041 90.8199 171.939 90.469 171.955 90.1137C171.954 89.7715 172.056 89.4365 172.246 89.1522C172.435 88.8685 172.703 88.6471 173.017 88.5169C173.377 88.3526 173.769 88.2709 174.165 88.2759C174.709 88.2477 175.245 88.4185 175.673 88.7571C175.866 88.9004 176.027 89.0834 176.144 89.2932C176.263 89.5038 176.335 89.7361 176.358 89.9763H175.415C175.365 89.71 175.219 89.4712 175.005 89.307C174.74 89.1037 174.413 89.0002 174.08 89.0147C173.757 89.0024 173.441 89.1059 173.189 89.307C173.077 89.4011 172.988 89.519 172.928 89.6536C172.868 89.7874 172.841 89.9329 172.846 90.0797C172.835 90.299 172.909 90.5139 173.051 90.681C173.196 90.8236 173.364 90.94 173.549 91.024C173.829 91.1303 174.115 91.2222 174.405 91.2989C174.766 91.3952 175.121 91.516 175.467 91.66C175.726 91.7859 175.954 91.9675 176.135 92.1918C176.343 92.4812 176.445 92.8329 176.426 93.1881C176.43 93.5159 176.341 93.8379 176.169 94.1157C175.984 94.4131 175.724 94.6555 175.415 94.8197C175.039 94.9898 174.63 95.0773 174.217 95.0773ZM186.208 90.3026C186.214 90.5609 186.167 90.8178 186.07 91.0573C185.972 91.2968 185.827 91.5131 185.643 91.694C185.162 92.0869 184.548 92.2779 183.93 92.2265H182.662V95.0093H181.702V88.4308H183.844C184.461 88.3932 185.07 88.582 185.557 88.9633C185.744 89.1464 185.892 89.3656 185.992 89.6073C186.092 89.8497 186.142 90.1094 186.139 90.3713L186.208 90.3026ZM183.913 91.5225C184.103 91.5435 184.294 91.5247 184.477 91.469C184.66 91.4125 184.83 91.3199 184.975 91.1962C185.095 91.0826 185.189 90.9437 185.249 90.7888C185.307 90.634 185.331 90.4683 185.318 90.3026C185.318 89.4958 184.855 89.0834 183.913 89.0834H182.645V91.5225H183.913ZM193.523 88.362L191.022 95.0093H190.012L187.528 88.362H188.453L190.526 94.0817L192.615 88.362H193.523ZM199.314 88.362V89.066H197.515V95.0093H196.641V89.1348H194.825V88.4308L199.314 88.362ZM201.421 95.0607C201.269 95.065 201.121 95.0093 201.01 94.9058C200.899 94.7908 200.836 94.6367 200.836 94.4768C200.836 94.3161 200.899 94.162 201.01 94.047C201.062 93.9927 201.127 93.95 201.198 93.9232C201.269 93.8972 201.345 93.8863 201.421 93.8929C201.496 93.8885 201.572 93.9001 201.642 93.9269C201.713 93.9536 201.777 93.9942 201.832 94.047C201.943 94.162 202.005 94.3161 202.005 94.4768C202.005 94.6367 201.943 94.7908 201.832 94.9058C201.719 95.0064 201.572 95.0614 201.421 95.0607ZM208.068 94.3045H210.397V95.0093H207.211V88.4308H208.068V94.3045ZM216.153 88.362V89.066H214.441V95.0093H213.584V89.1348H211.751V88.4308L216.153 88.362ZM220.042 88.362C220.692 88.349 221.336 88.4843 221.926 88.7571C222.437 89.0197 222.859 89.4249 223.143 89.9249C223.424 90.4748 223.571 91.0848 223.571 91.7027C223.571 92.3206 223.424 92.9298 223.143 93.4804C222.857 93.9695 222.435 94.3639 221.926 94.6142C221.339 94.8942 220.693 95.0303 220.042 95.0093H217.987V88.4308L220.042 88.362ZM220.042 94.2879C220.396 94.314 220.752 94.2684 221.087 94.1533C221.423 94.0383 221.732 93.8559 221.995 93.6179C222.232 93.3632 222.415 93.0622 222.533 92.7352C222.65 92.4074 222.701 92.0587 222.681 91.7114C222.715 91.3554 222.671 90.9958 222.55 90.6593C222.43 90.3229 222.236 90.0168 221.984 89.7643C221.732 89.511 221.427 89.3171 221.091 89.197C220.756 89.0762 220.397 89.0313 220.042 89.066H218.843V94.2192L220.042 94.2879ZM225.747 95.0607C225.59 95.0636 225.438 95.0086 225.319 94.9058C225.207 94.7908 225.146 94.6367 225.146 94.4768C225.146 94.3161 225.207 94.162 225.319 94.047C225.375 93.992 225.442 93.95 225.516 93.9232C225.59 93.8965 225.668 93.8863 225.747 93.8929C225.82 93.8863 225.894 93.8972 225.962 93.924C226.03 93.9507 226.092 93.9927 226.141 94.047C226.252 94.162 226.314 94.3161 226.314 94.4768C226.314 94.6367 226.252 94.7908 226.141 94.9058C226.089 94.9565 226.027 94.9963 225.96 95.023C225.892 95.0491 225.819 95.0621 225.747 95.0607Z" fill="#0066FF"/>
</svg>
